<svg width="240" height="244" viewBox="0 0 240 244" fill="none" xmlns="http://www.w3.org/2000/svg">
<mask id="mask0" style="mask-type:alpha" maskUnits="userSpaceOnUse" x="0" y="0" width="240" height="244">
<rect width="240" height="244" fill="#C4C4C4"/>
</mask>
<g mask="url(#mask0)">
<mask id="mask1" style="mask-type:alpha" maskUnits="userSpaceOnUse" x="0" y="4" width="240" height="240">
<path d="M120 244C186.274 244 240 190.274 240 124C240 57.7258 186.274 4 120 4C53.7258 4 0 57.7258 0 124C0 190.274 53.7258 244 120 244Z" fill="white"/>
</mask>
<g mask="url(#mask1)">
<path d="M120 244C186.274 244 240 190.274 240 124C240 57.7258 186.274 4 120 4C53.7258 4 0 57.7258 0 124C0 190.274 53.7258 244 120 244Z" fill="#E6E6E6"/>
<path d="M240 4H0V244H240V4Z" fill="#65C9FF"/>
</g>
<mask id="mask2" style="mask-type:alpha" maskUnits="userSpaceOnUse" x="-12" y="-36" width="264" height="280">
<path d="M0 124C0 190.274 53.7258 244 120 244C186.274 244 240 190.274 240 124H252V-36H-12V124H0Z" fill="white"/>
</mask>
<g mask="url(#mask2)">
<mask id="mask3" style="mask-type:alpha" maskUnits="userSpaceOnUse" x="20" y="0" width="200" height="244">
<path d="M144 144.611V163H148C187.765 163 220 195.235 220 235V244H20V235C20 195.235 52.2355 163 92 163H96V144.611C78.7626 136.422 66.3722 119.687 64.3051 99.8812C58.4803 99.0578 54 94.0521 54 88V74C54 68.054 58.3246 63.1181 64 62.1659V56C64 25.0721 89.0721 0 120 0C150.928 0 176 25.0721 176 56V62.1659C181.675 63.1181 186 68.054 186 74V88C186 94.0521 181.52 99.0578 175.695 99.8812C173.628 119.687 161.237 136.422 144 144.611Z" fill="white"/>
</mask>
<g mask="url(#mask3)">
<path d="M144 144.611V163H148C187.765 163 220 195.235 220 235V244H20V235C20 195.235 52.2355 163 92 163H96V144.611C78.7626 136.422 66.3722 119.687 64.3051 99.8812C58.4803 99.0578 54 94.0521 54 88V74C54 68.054 58.3246 63.1181 64 62.1659V56C64 25.0721 89.0721 0 120 0C150.928 0 176 25.0721 176 56V62.1659C181.675 63.1181 186 68.054 186 74V88C186 94.0521 181.52 99.0578 175.695 99.8812C173.628 119.687 161.237 136.422 144 144.611Z" fill="#D0C6AC"/>
<path d="M284 0H20V280H284V0Z" fill="#AE5D29"/>
<path fill-rule="evenodd" clip-rule="evenodd" d="M176 79V102C176 132.928 150.928 158 120 158C89.0721 158 64 132.928 64 102V79V94C64 124.928 89.0721 150 120 150C150.928 150 176 124.928 176 94V79Z" fill="black" fill-opacity="0.1"/>
</g>
<mask id="mask4" style="mask-type:alpha" maskUnits="userSpaceOnUse" x="20" y="166" width="200" height="78">
<path fill-rule="evenodd" clip-rule="evenodd" d="M169.544 166.33C198.784 175.488 220 202.792 220 235.052V244H20V235.052C20 202.397 41.7388 174.82 71.534 166.002C71.1822 167.42 71 168.871 71 170.348C71 186.629 93.1619 199.828 120.5 199.828C147.838 199.828 170 186.629 170 170.348C170 168.985 169.845 167.644 169.544 166.33Z" fill="white"/>
</mask>
<g mask="url(#mask4)">
<path fill-rule="evenodd" clip-rule="evenodd" d="M169.544 166.33C198.784 175.488 220 202.792 220 235.052V244H20V235.052C20 202.397 41.7388 174.82 71.534 166.002C71.1822 167.42 71 168.871 71 170.348C71 186.629 93.1619 199.828 120.5 199.828C147.838 199.828 170 186.629 170 170.348C170 168.985 169.845 167.644 169.544 166.33Z" fill="#E6E6E6"/>
<path d="M252 134H-12V244H252V134Z" fill="#FF5C5C"/>
</g>
<path fill-rule="evenodd" clip-rule="evenodd" d="M106 127C106 119.268 112.268 113 120 113C127.732 113 134 119.268 134 127" fill="black" fill-opacity="0.7"/>
<path fill-rule="evenodd" clip-rule="evenodd" d="M108 94C108 98.4183 113.373 102 120 102C126.627 102 132 98.4183 132 94" fill="black" fill-opacity="0.16"/>
<path d="M93 79.2L98.5 84.7C99 85.1 99.7 85.1 100.1 84.7L101.7 83.1C102.1 82.6 102.1 81.9 101.7 81.5L96.2 76L101.7 70.5C102.1 70 102.1 69.3 101.7 68.9L100.1 67.3C99.6 66.9 98.9 66.9 98.5 67.3L93 72.8L87.5 67.3C87 66.9 86.3 66.9 85.9 67.3L84.3 68.9C83.9 69.3 83.9 70 84.3 70.5L89.8 76L84.3 81.5C83.9 82 83.9 82.7 84.3 83.1L85.9 84.7C86.4 85.1 87.1 85.1 87.5 84.7L93 79.2Z" fill="black" fill-opacity="0.6"/>
<path d="M147 79.2L152.5 84.7C153 85.1 153.7 85.1 154.1 84.7L155.7 83.1C156.1 82.6 156.1 81.9 155.7 81.5L150.2 76L155.7 70.5C156.1 70 156.1 69.3 155.7 68.9L154.1 67.3C153.6 66.9 152.9 66.9 152.5 67.3L147 72.8L141.5 67.3C141 66.9 140.3 66.9 139.9 67.3L138.3 68.9C137.9 69.3 137.9 70 138.3 70.5L143.8 76L138.3 81.5C137.9 82 137.9 82.7 138.3 83.1L139.9 84.7C140.4 85.1 141.1 85.1 141.5 84.7L147 79.2Z" fill="black" fill-opacity="0.6"/>
<path d="M79.6302 63.1586C83.5451 57.6499 94.2779 54.5608 103.523 56.8312C104.596 57.0946 105.679 56.4386 105.942 55.3659C106.206 54.2932 105.55 53.21 104.477 52.9466C93.7403 50.31 81.3121 53.887 76.3697 60.8414C75.7299 61.7418 75.941 62.9904 76.8414 63.6303C77.7418 64.2701 78.9904 64.0589 79.6302 63.1586Z" fill="black" fill-opacity="0.6"/>
<path d="M160.37 63.1586C156.455 57.6499 145.722 54.5608 136.477 56.8312C135.405 57.0946 134.321 56.4386 134.058 55.3659C133.795 54.2932 134.451 53.21 135.523 52.9466C146.26 50.31 158.688 53.887 163.631 60.8414C164.27 61.7418 164.059 62.9904 163.159 63.6303C162.258 64.2701 161.01 64.0589 160.37 63.1586Z" fill="black" fill-opacity="0.6"/>
<mask id="mask5" style="mask-type:alpha" maskUnits="userSpaceOnUse" x="-12" y="-36" width="264" height="280">
<path d="M252 -36H-12V244H252V-36Z" fill="white"/>
</mask>
<g mask="url(#mask5)">
<mask id="mask6" style="mask-type:alpha" maskUnits="userSpaceOnUse" x="63" y="62" width="114" height="89">
<path fill-rule="evenodd" clip-rule="evenodd" d="M137.428 134.169C134.915 136.463 132.237 137.494 128.853 136.773C128.271 136.649 125.896 132.235 120 132.235C114.103 132.235 111.729 136.649 111.147 136.773C107.762 137.494 105.085 136.463 102.571 134.169C97.8462 129.856 93.9166 123.908 96.2778 117.419C97.5084 114.037 99.5097 110.324 103.151 109.246C107.038 108.096 112.497 109.244 116.415 108.458C117.684 108.204 119.071 107.751 120 107C120.929 107.751 122.316 108.204 123.585 108.458C127.503 109.244 132.961 108.096 136.849 109.246C140.49 110.324 142.491 114.037 143.722 117.419C146.083 123.908 142.154 129.856 137.428 134.169ZM176.081 62C172.671 70.4003 173.988 80.858 173.357 89.6759C172.844 96.8432 171.337 107.586 164.973 112.215C161.718 114.582 155.794 118.56 151.542 117.45C148.615 116.686 148.302 108.29 144.455 105.147C140.092 101.582 134.643 100.016 129.149 100.258C126.779 100.362 121.984 100.337 120 102.16C118.016 100.337 113.222 100.362 110.851 100.258C105.357 100.016 99.9081 101.582 95.5446 105.147C91.6977 108.29 91.3857 116.686 88.4583 117.45C84.2058 118.56 78.2818 114.582 75.027 112.215C68.6624 107.586 67.1562 96.8432 66.6429 89.6759C66.0121 80.858 67.3292 70.4003 63.9188 62C62.2598 62 63.354 78.1289 63.354 78.1289V98.4851C63.3857 113.773 72.9351 136.655 94.108 145.393C99.2861 147.53 111.015 151 120 151C128.985 151 140.714 147.86 145.892 145.723C167.065 136.986 176.614 113.773 176.646 98.4851V78.1289C176.646 78.1289 177.74 62 176.081 62Z" fill="white"/>
</mask>
<g mask="url(#mask6)">
<path fill-rule="evenodd" clip-rule="evenodd" d="M137.428 134.169C134.915 136.463 132.237 137.494 128.853 136.773C128.271 136.649 125.896 132.235 120 132.235C114.103 132.235 111.729 136.649 111.147 136.773C107.762 137.494 105.085 136.463 102.571 134.169C97.8462 129.856 93.9166 123.908 96.2778 117.419C97.5084 114.037 99.5097 110.324 103.151 109.246C107.038 108.096 112.497 109.244 116.415 108.458C117.684 108.204 119.071 107.751 120 107C120.929 107.751 122.316 108.204 123.585 108.458C127.503 109.244 132.961 108.096 136.849 109.246C140.49 110.324 142.491 114.037 143.722 117.419C146.083 123.908 142.154 129.856 137.428 134.169ZM176.081 62C172.671 70.4003 173.988 80.858 173.357 89.6759C172.844 96.8432 171.337 107.586 164.973 112.215C161.718 114.582 155.794 118.56 151.542 117.45C148.615 116.686 148.302 108.29 144.455 105.147C140.092 101.582 134.643 100.016 129.149 100.258C126.779 100.362 121.984 100.337 120 102.16C118.016 100.337 113.222 100.362 110.851 100.258C105.357 100.016 99.9081 101.582 95.5446 105.147C91.6977 108.29 91.3857 116.686 88.4583 117.45C84.2058 118.56 78.2818 114.582 75.027 112.215C68.6624 107.586 67.1562 96.8432 66.6429 89.6759C66.0121 80.858 67.3292 70.4003 63.9188 62C62.2598 62 63.354 78.1289 63.354 78.1289V98.4851C63.3857 113.773 72.9351 136.655 94.108 145.393C99.2861 147.53 111.015 151 120 151C128.985 151 140.714 147.86 145.892 145.723C167.065 136.986 176.614 113.773 176.646 98.4851V78.1289C176.646 78.1289 177.74 62 176.081 62Z" fill="#331B0C"/>
<path d="M268 36H4V280H268V36Z" fill="#2C1B18"/>
</g>
<path fill-rule="evenodd" clip-rule="evenodd" d="M147.395 3.78102C144.318 0.692798 141.119 7.63866 139.623 9.42811C136.013 13.7487 132.54 18.1829 128.868 22.4519C121.616 30.8824 114.439 39.3743 107.234 47.8402C106.14 49.1257 106.273 49.2649 104.837 49.3886C103.886 49.4709 102.563 48.9802 101.574 48.9257C98.8236 48.7746 96.1121 49.2348 93.4358 49.8227C88.0914 50.9962 82.4265 52.9291 77.7891 55.8983C76.5718 56.6773 75.7875 57.5972 74.4671 57.8412C73.3184 58.0535 71.7944 57.6296 70.6223 57.5195C68.5413 57.3237 65.5379 56.4726 63.4954 56.9137C60.9028 57.4738 59.9174 60.611 62.5605 62.0004C64.5703 63.0564 68.5706 62.4762 70.8236 62.6448C73.3971 62.8372 72.6121 62.7043 72.2474 65.1643C71.7239 68.6976 72.5986 72.6465 74.0886 75.8782C77.5483 83.3832 87.1229 91.3352 95.8551 90.6031C103.142 89.9924 109.527 83.4133 112.519 77.0999C114.051 73.8689 114.955 70.1921 115.25 66.6284C115.439 64.3618 115.334 61.958 114.684 59.7632C114.363 58.6784 113.854 57.5555 113.308 56.5695C112.866 55.771 110.909 53.9204 110.789 53.1166C110.556 51.5602 114.973 47.3875 115.816 46.3443C119.789 41.4276 123.78 36.5321 127.722 31.5889C131.603 26.7202 135.506 21.864 139.49 17.0786C141.294 14.9099 150.318 6.71484 147.395 3.78102Z" fill="#28354B"/>
</g>
</g>
</g>
</svg>
